<svg width="306" height="87" viewBox="0 0 306 87" fill="none" xmlns="http://www.w3.org/2000/svg">
<path d="M-2.09001 86.05C-7.27285 86.0783 -12.3278 84.4413 -16.51 81.38C-17.6405 80.5887 -18.9142 80.0249 -20.26 79.72C-24.6092 78.6117 -28.847 77.1053 -32.92 75.22C-38.26 72.8 -42.54 69.22 -46.38 65.64C-54.4044 58.1597 -64.8052 53.7416 -75.76 53.16C-76.88 53.08 -78.06 53.01 -79.22 53.01C-80.9767 52.9707 -82.7284 53.2103 -84.41 53.72C-90.6562 55.594 -96.5588 58.4643 -101.89 62.22C-103.32 63.22 -104.75 64.37 -106.12 65.44C-107.49 66.51 -108.91 67.61 -110.33 68.65C-116.03 72.8233 -121.75 76.9667 -127.49 81.08L-131.81 84.2C-131.999 84.383 -132.24 84.502 -132.5 84.54C-132.688 84.5312 -132.866 84.4528 -133 84.32L-132.77 84.13C-132.55 83.95 -132.34 83.77 -132.11 83.61C-124.022 78.3612 -116.23 72.6692 -108.77 66.56C-100.83 60.03 -93.51 55.88 -85.77 53.49C-76.58 50.66 -64.46 46.98 -52.29 43.65C-43.2389 41.1565 -33.8982 39.8687 -24.51 39.82H-24.19C-20.4621 39.663 -16.7402 40.2477 -13.24 41.54C-10.8443 42.5962 -8.50758 43.7812 -6.24001 45.09L-4.96001 45.79C-3.51001 46.59 -2.06001 47.46 -0.650009 48.3C0.209991 48.81 1.07001 49.3 1.94 49.83C3.05899 50.514 4.33887 50.89 5.64999 50.92C7.25954 50.8771 8.82507 50.3853 10.17 49.5C13.0555 47.8064 15.384 45.3076 16.87 42.31C17.52 40.99 18.14 39.62 18.73 38.31C19.32 37 19.98 35.54 20.65 34.18C25.24 24.92 33.18 19.71 44.96 18.35C45.8731 18.2477 46.7912 18.1976 47.71 18.2C50.5751 18.2721 53.4304 18.5664 56.25 19.08L56.82 19.17C57.1805 19.2281 57.5449 19.2582 57.91 19.26C58.7768 19.2587 59.6307 19.0495 60.4 18.65L62.03 17.84C68.15 14.77 74.48 11.61 80.03 7.43C80.2531 7.28353 80.5058 7.18794 80.77 7.15L80.97 7.09C80.751 7.63635 80.3882 8.11323 79.92 8.47L78.4 9.82C76.97 11.06 75.5 12.35 74.01 13.58C71.7 15.5 69.6 17.21 67.38 18.84C66.2006 19.7796 64.7561 20.3253 63.25 20.4C62.9685 20.402 62.6873 20.3786 62.41 20.33C61.8723 20.231 61.3267 20.1808 60.78 20.18C58.5145 20.2921 56.3151 20.9805 54.39 22.18C53.68 22.56 52.93 22.89 52.2 23.18L51.68 23.41C45.4927 25.9933 39.8065 29.6419 34.88 34.19L30.67 38.19C29.09 39.67 27.52 41.19 25.96 42.64C22.7561 45.7464 19.0974 48.3463 15.11 50.35C14.27 50.76 13.41 51.09 12.41 51.47C11.93 51.65 11.41 51.84 10.9 52.06L10.55 52.2L10.92 52.25L11.61 52.37C11.8884 52.4395 12.1732 52.4797 12.46 52.49L15.16 52.43C17.3278 52.4675 19.4957 52.3639 21.65 52.12C28.56 51.12 35.71 50.18 42.79 48.74C58.79 45.47 75.13 42.02 90.88 38.68L103.47 36.02C106.2 35.44 109.1 34.81 111.86 34.02C116.11 32.74 119.54 30.02 122.86 27.45L123.65 26.84C124.509 26.0976 125.175 25.1572 125.59 24.1C126.448 22.1228 127.195 20.0997 127.83 18.04C129.25 13.44 131.41 10.7 134.83 9.15C137.15 8.1738 139.654 7.71318 142.17 7.8H143.04C150.645 8.02157 158.201 9.10858 165.56 11.04C166.494 11.2862 167.454 11.4139 168.42 11.42C170.104 11.4043 171.755 10.9604 173.22 10.13C177.96 7.62 182.86 5.13 187.59 2.82L192.5 0.369995L192.73 0.239998C192.915 0.105568 193.132 0.0227416 193.36 0C193.56 0.00599876 193.749 0.0883139 193.89 0.229996C192.65 1.29 191.43 2.36 190.21 3.42C187.21 6 184.21 8.66999 181.11 11.19C179.14 12.73 176.65 12.92 174.65 12.92H173.76C173.042 12.8851 172.328 12.8049 171.62 12.68C171.289 12.631 170.955 12.6043 170.62 12.6C169.722 12.601 168.837 12.8062 168.03 13.2C162.294 15.9074 156.099 17.5087 149.77 17.92C146.011 18.1571 142.363 19.2885 139.13 21.22C136.05 23.1 132.99 25.01 129.84 26.97L125.65 29.59L125.71 29.77L128.43 29.56C130.27 29.41 132.02 29.27 133.77 29.15C135.52 29.03 136.9 28.98 138.22 28.98C141.149 28.9157 144.07 29.3036 146.88 30.13C151.94 31.7 156.81 33.69 160.48 35.25C166.24 37.69 172.77 40.46 179.48 42.06C182.48 42.76 185.48 43.4 188.4 44.06L192.45 44.92C194.093 45.2688 195.77 45.4364 197.45 45.42C198.15 45.42 198.89 45.42 199.65 45.34C200.484 45.3314 201.292 45.0501 201.951 44.5391C202.61 44.0281 203.084 43.3155 203.3 42.51C204.507 39.4354 204.923 36.1071 204.51 32.83C204.171 30.346 204.648 27.819 205.87 25.63C208.293 21.1926 211.537 17.2561 215.43 14.03C217.249 12.5479 219.373 11.4859 221.65 10.92C224.319 10.241 227.067 9.92477 229.82 9.98C230.82 9.98 231.93 9.98 233.24 10.07H233.74C234.813 10.0876 235.876 9.86192 236.85 9.41C238.71 8.55 240.6 7.71 242.48 6.87L244.65 5.92C246.728 4.93608 248.991 4.4076 251.29 4.37H252.15C254.82 4.54 257.49 4.74 260.15 4.95C260.305 4.9819 260.452 5.04669 260.58 5.14C260.635 5.18465 260.695 5.22165 260.76 5.25L260.61 5.41C260.536 5.51046 260.441 5.5926 260.33 5.65C257.183 7.03 254.037 8.39667 250.89 9.75C248.24 10.9533 245.37 11.5967 242.46 11.64C241.113 11.6406 239.77 11.4829 238.46 11.17C237.805 11.0105 237.134 10.93 236.46 10.93C234.79 10.9552 233.173 11.52 231.85 12.54L231.05 13.11C230.264 13.6433 229.51 14.2209 228.79 14.84C225.79 17.55 222.61 20.52 219.02 23.9C216.098 26.5538 213.759 29.7853 212.15 33.39C211.4 35.13 210.55 36.86 209.74 38.54L209.13 39.81C208.411 41.6331 207.16 43.1977 205.54 44.3C205.329 44.4575 205.155 44.6588 205.03 44.89L204.84 45.17L205.07 45.7H205.14C205.92 45.62 206.71 45.56 207.49 45.49C209.219 45.3899 210.941 45.1997 212.65 44.92C217.37 44.04 222.15 43.09 226.78 42.17C229.63 41.6 232.48 41.03 235.33 40.48C238.424 39.8436 241.572 39.5087 244.73 39.48C245.99 39.48 247.24 39.54 248.46 39.66C253.875 40.1846 259.076 42.0396 263.6 45.06C264.549 45.7152 265.676 46.0642 266.83 46.06C267.138 46.0608 267.446 46.0374 267.75 45.99C269.019 45.8084 270.298 45.7182 271.58 45.72C273.767 45.7322 275.947 45.9566 278.09 46.39L278.85 46.54C280.92 46.95 283.05 47.36 285.17 47.6C288.74 47.99 292.37 48.34 295.88 48.68L302.69 49.35C303.254 49.4219 303.812 49.5356 304.36 49.69L305.28 49.92C305.1 50.09 304.96 50.25 304.83 50.39C304.646 50.6469 304.407 50.8588 304.13 51.01C303.337 51.3295 302.517 51.5772 301.68 51.75C296.43 52.87 291.117 53.6715 285.77 54.15L283.29 54.43C282.89 54.43 282.49 54.49 282.1 54.49C280.482 54.4945 278.889 54.0885 277.47 53.31C276.47 52.77 275.47 52.31 274.47 51.78C272.676 50.9632 270.942 50.0208 269.28 48.96C267.616 47.7939 265.632 47.1689 263.6 47.17C262.59 47.1737 261.584 47.2911 260.6 47.52C256.447 48.4484 252.205 48.9179 247.95 48.92C244.056 48.9066 240.169 48.6057 236.32 48.02C232.94 47.52 229.46 47.29 226.09 47.07C224.52 46.97 222.95 46.87 221.38 46.74C220.56 46.67 219.74 46.58 218.92 46.5C217.24 46.33 215.51 46.15 213.8 46.12H211.8C210.25 46.12 208.7 46.12 207.14 46.12C205.58 46.12 204.04 46.12 202.49 46.12H199.89H199.65C196.276 46.2166 192.906 45.8122 189.65 44.92C188.694 44.6427 187.712 44.4618 186.72 44.38C186.23 44.32 185.72 44.26 185.22 44.18H185.06V44.33C185.356 45.1933 185.911 45.9442 186.65 46.48L187.1 46.87C190.1 49.56 193.1 52.34 194.67 56.09C195.93 59.3357 198.355 61.9954 201.47 63.55C203.51 64.597 205.22 66.1893 206.41 68.15C207.56 70.02 208.65 71.97 209.7 73.86L210.06 74.52C211.4 76.91 212.77 79.38 215.35 80.99C215.884 81.2409 216.343 81.6281 216.68 82.1126C217.017 82.5971 217.221 83.1618 217.27 83.75L216.87 83.68C216.617 83.6598 216.371 83.5847 216.15 83.46C215.352 82.8791 214.624 82.208 213.98 81.46C213.004 80.2028 211.76 79.1782 210.34 78.46L209.88 78.21C206.14 76.21 202.27 74.21 198.58 72C191.05 67.56 186.75 61.63 185.43 53.87C185.17 52.31 184.74 50.75 184.33 49.24C184.08 48.34 183.84 47.44 183.63 46.53C183.14 44.53 181.79 43.27 179.37 42.7C173.138 41.0622 167.054 38.9081 161.18 36.26L159.48 35.53C155.755 33.8358 151.924 32.3861 148.01 31.19C144.105 30.0886 140.067 29.5334 136.01 29.54C130.58 29.5955 125.188 30.4548 120.01 32.09C113.9 33.95 106.78 36.09 99.63 37.57L74.86 42.79L70.25 43.79C69.71 43.9 69.18 44.02 68.65 44.15L67.74 44.35L67.85 44.48C67.9604 44.6451 68.1089 44.7812 68.283 44.8769C68.457 44.9726 68.6514 45.0251 68.85 45.03H69C69.67 45.03 70.27 45.03 70.81 44.96C75.08 44.57 79.56 44.38 84.13 44.38C86.34 44.38 88.64 44.38 90.95 44.52C97.4293 44.642 103.619 47.2272 108.26 51.75C109.81 53.26 111.26 54.91 112.7 56.5C113.54 57.44 114.38 58.38 115.23 59.29C115.726 59.9123 116.359 60.4119 117.08 60.75C119.48 61.59 121.94 62.39 124.32 63.16L127.61 64.23L130.61 65.23C133.7 66.23 136.89 67.29 140.01 68.37L141.45 68.86C146.37 70.57 151.45 72.34 156.82 72.71C157.661 72.8049 158.489 72.9893 159.29 73.26L159.75 73.4C159.966 73.4916 160.157 73.632 160.31 73.81L160.72 74.16L159.97 74.33C159.521 74.4463 159.062 74.5232 158.6 74.56C154.87 74.74 150.6 74.93 146.47 75.05H144.89C140.006 75.1719 135.153 74.255 130.65 72.36C126.4 70.396 122.535 67.6865 119.24 64.36C116.74 61.94 114.42 60.19 111.24 59.57C109.57 59.24 107.89 58.76 106.24 58.3C104.83 57.9 103.38 57.49 101.94 57.18C100.14 56.78 98.29 56.51 96.49 56.25C95.49 56.11 94.49 55.97 93.56 55.81H93.41C89.17 55.11 84.78 54.38 80.84 52.37C76.7698 50.2924 72.5061 48.6177 68.11 47.37C65.7049 46.6491 63.2106 46.2687 60.7 46.24C59.2993 46.2375 57.9021 46.3783 56.53 46.66C50.12 47.98 43.63 49.25 37.23 50.45C29.65 51.85 22.77 53.04 15.65 53.19H14.81C9.35721 53.2684 3.98682 51.854 -0.720001 49.1C-2.25999 48.18 -3.8 47.19 -5.28001 46.23L-6.2 45.64C-10.9556 42.4805 -16.494 40.7012 -22.2 40.5C-23.05 40.5 -23.89 40.5 -24.73 40.5C-30.4692 40.5673 -36.1926 41.1159 -41.84 42.14C-51.8222 43.9658 -61.6581 46.5159 -71.27 49.77L-75.19 51.04L-75.03 51.16L-74.77 51.36C-74.6818 51.443 -74.5758 51.5045 -74.46 51.54C-74.1554 51.5865 -73.8481 51.6132 -73.54 51.62H-73.35C-72.53 51.62 -71.69 51.55 -70.86 51.55C-65.3209 51.5976 -59.8213 52.4877 -54.55 54.19C-51.4926 55.1217 -48.3612 55.7908 -45.19 56.19C-40.2361 56.8392 -35.6115 59.029 -31.97 62.45C-29.0374 65.1391 -26.4266 68.1593 -24.19 71.45C-22.72 73.58 -20.99 75.84 -18.74 78.57C-18.1604 79.2423 -17.3836 79.7147 -16.52 79.92C-10.3413 81.2177 -4.06729 82.0103 2.23999 82.29C5.40999 82.47 8.64 82.53 11.76 82.59C13.36 82.59 14.96 82.65 16.56 82.7H16.9C17.3174 82.6605 17.7385 82.7047 18.1386 82.8301C18.5387 82.9554 18.9097 83.1594 19.23 83.43L18.66 83.61C18.3357 83.7306 18.0009 83.821 17.66 83.88L9.48999 84.88L1.54999 85.88C0.341354 86.012 -0.874329 86.0688 -2.09001 86.05ZM-15.43 81.05C-13.6032 82.6769 -11.3948 83.8155 -9.01001 84.36L-8.76001 84.43C-6.61526 85.0903 -4.38411 85.4273 -2.14001 85.43C-1.18988 85.4284 -0.240967 85.3616 0.699997 85.23C2.33 85.01 4 84.84 5.62 84.67C6.76999 84.55 7.92 84.43 9.06 84.29C9.63553 84.2108 10.2063 84.1007 10.77 83.96L11.54 83.79V83.59C2.52956 83.2266 -6.45039 82.315 -15.35 80.86L-15.68 80.8L-15.43 81.05ZM-69.99 52.25C-70.79 52.25 -71.6 52.25 -72.4 52.32V52.52C-71.27 52.82 -70.16 53.1 -69.07 53.37C-66.69 53.96 -64.45 54.52 -62.26 55.28C-56.7889 57.1329 -51.7361 60.0449 -47.39 63.85L-46.69 64.47C-44.39 66.52 -42 68.63 -39.52 70.55C-34.75 74.23 -29.07 76.3 -24.12 77.95C-23.25 78.23 -22.37 78.5 -21.39 78.79L-19.59 79.32C-19.59 79.32 -19.99 78.66 -20.09 78.48C-20.19 78.3 -20.44 77.9 -20.61 77.66L-22.35 75.17C-23.74 73.17 -25.19 71.1 -26.7 69.17C-29.32 65.77 -33.01 61.54 -38.28 59.03C-40.2317 58.0513 -42.3346 57.409 -44.5 57.13C-48.0951 56.6557 -51.6397 55.8558 -55.09 54.74L-57.16 54.14C-61.3265 52.9073 -65.6451 52.2644 -69.99 52.23V52.25ZM184.21 45.81C184.26 46.15 184.31 46.43 184.37 46.7C184.62 47.7 184.88 48.7 185.13 49.76C185.62 51.69 186.13 53.68 186.55 55.65C187.78 61.22 190.84 65.74 195.9 69.49C199.046 71.693 202.355 73.6521 205.8 75.35C207.34 76.15 208.92 76.99 210.45 77.85H210.52L210.99 77.43V77.35L209.53 74.76C208.4 72.76 207.24 70.76 206.05 68.76C204.864 66.75 203.129 65.1197 201.05 64.06C197.924 62.4781 195.482 59.8119 194.18 56.56C192.57 52.75 189.57 49.88 186.39 47.04C185.96 46.66 185.54 46.27 185.06 45.83L184.06 44.92L184.21 45.81ZM118.4 61.92C118.35 61.9133 118.3 61.9133 118.25 61.92L118.08 61.97H117.95L118.02 62.09C118.02 62.17 118.11 62.25 118.15 62.33C118.223 62.5074 118.329 62.67 118.46 62.81C122.46 66.53 125.98 69.43 130.27 71.46C134.662 73.4564 139.447 74.4406 144.27 74.34H144.65C147.28 74.34 149.95 74.23 152.53 74.14L155.06 74.06C155.44 74.06 155.81 74 156.19 73.96L156.79 73.89V73.41L155.62 73.17L153.23 72.68L151.17 72.25C149.52 71.9454 147.887 71.5515 146.28 71.07C139.69 68.93 133 66.71 126.54 64.56L118.44 61.86L118.4 61.92ZM83.42 44.92C79.34 44.92 75.03 45.1 70.63 45.47C69.63 45.56 68.63 45.57 67.53 45.58H65.95V45.78L69.56 47.11C72.47 48.17 75.22 49.18 77.98 50.25C78.98 50.66 80.04 51.16 81.03 51.65L82.68 52.45C85.6575 53.6799 88.7846 54.5105 91.98 54.92L93.82 55.23C94.82 55.42 95.82 55.56 96.88 55.7C98.28 55.89 99.72 56.09 101.12 56.39C103.64 56.95 106.19 57.62 108.65 58.27L111.43 59C111.94 59.13 112.43 59.28 112.99 59.45L113.93 59.73V59.59C113.924 59.4934 113.924 59.3966 113.93 59.3C113.95 59.2247 113.955 59.1462 113.945 59.069C113.935 58.9918 113.909 58.9173 113.87 58.85C111.046 55.0426 107.63 51.7135 103.75 48.99C100.005 46.5768 95.6643 45.2477 91.21 45.15C88.65 45.01 86.06 44.92 83.42 44.92ZM271.59 46.42C270.165 46.4097 268.744 46.5539 267.35 46.85H267.16L267.3 46.99C267.378 47.0582 267.452 47.1317 267.52 47.21C267.648 47.3637 267.8 47.4954 267.97 47.6L271.79 49.6C273.85 50.66 275.907 51.7333 277.96 52.82C279.216 53.487 280.618 53.8307 282.04 53.82H282.83C289.456 53.3704 296.036 52.4007 302.51 50.92C302.692 50.8682 302.869 50.8013 303.04 50.72L303.35 50.59L303.27 50.07H303.19L300.82 49.88C299.12 49.75 297.36 49.62 295.64 49.4C289.99 48.68 283.92 47.89 277.77 46.96C275.726 46.6334 273.66 46.4595 271.59 46.44V46.42ZM47.51 18.92C39.5192 18.8458 31.8206 21.921 26.08 27.48C23.8107 29.7834 22.0017 32.4986 20.75 35.48L20.06 36.92C18.98 39.22 17.87 41.59 16.67 43.92C15.2406 46.5096 13.0903 48.6287 10.48 50.02C10.2205 50.1434 9.94417 50.2276 9.65999 50.27L9.23999 50.37H9.09999L9.62999 51.11C9.84305 51.1594 10.0613 51.1829 10.28 51.18C11.6011 51.1269 12.8947 50.7856 14.07 50.18C18.5723 48.0536 22.6727 45.1643 26.19 41.64C30.26 37.79 34.27 34.04 38.54 30.43C42.0939 27.6013 46.0209 25.2761 50.21 23.52C52.03 22.7 53.84 21.83 55.64 20.97L55.83 20.88C56.0542 20.7626 56.2654 20.6218 56.46 20.46L57.05 20.04L57.26 19.89H57.01L54.91 19.59C53.61 19.4 52.37 19.21 51.15 19.09C49.93 18.97 48.7 18.92 47.51 18.92ZM244.89 40.18C240.603 40.2694 236.338 40.8226 232.17 41.83C229.34 42.46 226.43 43 223.62 43.53L219.89 44.24C218.513 44.4437 217.168 44.8269 215.89 45.38L215.57 45.54L218.68 45.88C220.68 46.11 222.68 46.34 224.76 46.54C228.553 46.9 232.343 47.25 236.13 47.59L243.13 48.24C244.51 48.37 245.94 48.43 247.4 48.43C251.546 48.3802 255.679 47.9619 259.75 47.18L262.56 46.69L264.26 46.4L264.06 46.26C259.418 42.916 253.967 40.8723 248.27 40.34C247.19 40.18 246.04 40.13 244.89 40.13V40.18ZM229.75 10.55C227.712 10.5616 225.678 10.7422 223.67 11.09C219.966 11.6932 216.559 13.483 213.96 16.19C211.082 18.9688 208.62 22.1482 206.65 25.63C205.43 27.7043 204.914 30.1181 205.18 32.51C205.674 36.7448 204.927 41.0319 203.03 44.85L202.91 45.1L203.16 44.98C205.183 44.2099 206.866 42.7462 207.91 40.85L208.56 39.58C209.427 37.9815 210.212 36.3393 210.91 34.66C212.791 30.0616 215.703 25.9562 219.42 22.66L222.18 20.1C224.06 18.35 226.01 16.53 227.97 14.8C228.97 13.89 230.11 13.06 231.29 12.18L233 10.92L233.2 10.77H232.95C231.888 10.641 230.82 10.5676 229.75 10.55ZM142.47 8.38C140.014 8.2871 137.567 8.71657 135.29 9.64C133.82 10.2765 132.504 11.2223 131.433 12.413C130.361 13.6037 129.559 15.0113 129.08 16.54C128.77 17.4 128.47 18.26 128.17 19.12C127.65 20.62 127.17 22.12 126.58 23.6C125.777 25.7727 124.238 27.5951 122.23 28.75C121.734 29.0548 121.257 29.3888 120.8 29.75L120.17 30.23H120.1L120.4 30.82L121.81 30.24L124.75 29C127.74 27.5912 130.598 25.9179 133.29 24C134.54 23.16 135.84 22.29 137.16 21.49C140.963 19.0558 145.301 17.5834 149.8 17.2C155.21 16.8792 160.525 15.6275 165.51 13.5C166.1 13.24 166.69 12.98 167.27 12.7C167.35 12.7 167.4 12.57 167.48 12.45L167.64 12.19L167.72 12.07L166.3 11.72C165.39 11.49 164.5 11.26 163.6 11.07C157.52 9.66704 151.337 8.76072 145.11 8.36C144.23 8.41 143.35 8.38 142.47 8.38ZM60.85 19.18L61.06 19.27C61.7127 19.5431 62.4125 19.6858 63.12 19.69C64.2687 19.645 65.3857 19.3002 66.36 18.69C67.3541 18.1686 68.3099 17.5772 69.22 16.92C70.22 16.12 71.22 15.27 72.16 14.44L73.44 13.33L73.15 12.81L60.85 19.18ZM171.85 11.45L172.03 12.07H172.09C173.018 12.2354 173.958 12.3223 174.9 12.33C176.865 12.3863 178.797 11.8192 180.42 10.71C182.461 9.22014 184.421 7.62115 186.29 5.92C187.11 5.2 187.92 4.46999 188.75 3.75999L188.82 3.7L188.4 3.14L171.85 11.45ZM251.79 4.82C250.482 4.79758 249.178 4.98668 247.93 5.38C245.44 6.21 243 7.28 240.64 8.32C239.64 8.77 238.56 9.23 237.51 9.67H237.43L237.59 10.34H237.65C239.32 10.6978 241.022 10.8888 242.73 10.91C244.786 10.9411 246.826 10.5567 248.73 9.78C250.91 8.88 253.07 7.95 255.22 7.02L256.99 6.27C257.166 6.17618 257.336 6.07269 257.5 5.96C257.64 5.86 257.82 5.74 258.07 5.59L258.3 5.43999L257.07 5.27C255.328 5.00453 253.571 4.85421 251.81 4.82H251.79Z" fill="#BEB0A1"/>
</svg>
