<svg width="20" height="30" viewBox="0 0 20 30" fill="none" xmlns="http://www.w3.org/2000/svg">
<path d="M18.9798 15.0451C10.6723 15.8362 10.041 16.7174 9.55404 29.9645C9.55161 29.9746 9.54583 29.9836 9.53765 29.9901C9.52947 29.9965 9.51936 30 9.50894 30C9.49853 30 9.48842 29.9965 9.48024 29.9901C9.47206 29.9836 9.46629 29.9746 9.46385 29.9645C8.97427 16.7174 8.34297 15.8362 0.0355278 15.0451C0.0254039 15.0427 0.0163916 15.0369 0.00994748 15.0287C0.00350335 15.0205 0 15.0104 0 15C0 14.9896 0.00350335 14.9795 0.00994748 14.9713C0.0163916 14.9631 0.0254039 14.9573 0.0355278 14.9549C8.34297 14.1638 8.97427 13.2826 9.46385 0.0355278C9.46629 0.0254039 9.47206 0.0163955 9.48024 0.00995141C9.48842 0.00350728 9.49853 0 9.50894 0C9.51936 0 9.52947 0.00350728 9.53765 0.00995141C9.54583 0.0163955 9.55161 0.0254039 9.55404 0.0355278C10.041 13.2826 10.6723 14.1638 18.9798 14.9549C18.9899 14.9573 18.9989 14.9631 19.0054 14.9713C19.0118 14.9795 19.0153 14.9896 19.0153 15C19.0153 15.0104 19.0118 15.0205 19.0054 15.0287C18.9989 15.0369 18.9899 15.0427 18.9798 15.0451Z" fill="#AE7D67"/>
</svg>
